# xmcd
#
# Track frame offsets: 
#        150
#        14201
#        30910
#        51272
#        64740
#        86012
#        100399
#        131780
#        145147
#        178994
#
# Disc length: 2588 seconds
#
# Revision: 0
# Processed by: cddbd v1.5.2PL0 Copyright (c) Steve Scherf et al.
# Submitted via: ExactAudioCopy v0.95b4
#
DISCID=910a1a0a
DTITLE=Clarence Gatemouth Brown - Essential Recordings: Flippin' Out
DYEAR=2009
DGENRE=Blues
TTITLE0=Flippin' Out
TTITLE1=Next Time You See Me
TTITLE2=Catfish
TTITLE3=Strollin' With Bones
TTITLE4=I Wonder
TTITLE5=Alligator Boogaloo
TTITLE6=Please Send Me Someone To Love
TTITLE7=Baby Take It Easy
TTITLE8=What A Shame, What A Shame
TTITLE9=Ain't That Dandy
EXTD=
EXTT0=
EXTT1=
EXTT2=
EXTT3=
EXTT4=
EXTT5=
EXTT6=
EXTT7=
EXTT8=
EXTT9=
PLAYORDER=
